<?xml version="1.0" encoding="UTF-8"?>
<svg id="Layer_1" data-name="Layer 1" xmlns="http://www.w3.org/2000/svg" xmlns:xlink="http://www.w3.org/1999/xlink" viewBox="0 0 550.23 103.52">
  <defs>
    <style>
      .cls-1 {
        fill: url(#linear-gradient);
      }

      .cls-1, .cls-2, .cls-3, .cls-4 {
        stroke-width: 0px;
      }

      .cls-2 {
        fill: url(#linear-gradient-2);
      }

      .cls-3 {
        fill: url(#linear-gradient-3);
      }

      .cls-4 {
        fill: #494872;
      }
    </style>
    <linearGradient id="linear-gradient" x1="2.96" y1="57.73" x2="45.67" y2="50.2" gradientUnits="userSpaceOnUse">
      <stop offset="0" stop-color="#60fffe"/>
      <stop offset=".17" stop-color="#44fafe"/>
      <stop offset=".44" stop-color="#1ff5fe"/>
      <stop offset=".65" stop-color="#08f2fe"/>
      <stop offset=".79" stop-color="#00f1ff"/>
    </linearGradient>
    <linearGradient id="linear-gradient-2" x1="36.31" y1="15.8" x2="36.31" y2="71.16" gradientUnits="userSpaceOnUse">
      <stop offset="0" stop-color="aqua" stop-opacity=".2"/>
      <stop offset=".06" stop-color="rgba(18, 244, 254, .32)" stop-opacity=".32"/>
      <stop offset=".17" stop-color="rgba(46, 228, 254, .5)" stop-opacity=".5"/>
      <stop offset=".28" stop-color="rgba(70, 215, 253, .65)" stop-opacity=".65"/>
      <stop offset=".39" stop-color="rgba(90, 204, 253, .78)" stop-opacity=".78"/>
      <stop offset=".51" stop-color="rgba(105, 195, 253, .88)" stop-opacity=".88"/>
      <stop offset=".63" stop-color="rgba(116, 189, 253, .95)" stop-opacity=".95"/>
      <stop offset=".76" stop-color="rgba(122, 186, 253, .99)" stop-opacity=".99"/>
      <stop offset=".92" stop-color="#7db9fd"/>
    </linearGradient>
    <linearGradient id="linear-gradient-3" x1="21.43" y1="54.15" x2="54.68" y2="-3.45" gradientUnits="userSpaceOnUse">
      <stop offset="0" stop-color="#8a59fc" stop-opacity=".05"/>
      <stop offset=".03" stop-color="rgba(138, 88, 252, .08)" stop-opacity=".08"/>
      <stop offset=".39" stop-color="rgba(144, 78, 252, .47)" stop-opacity=".47"/>
      <stop offset=".68" stop-color="rgba(148, 71, 252, .75)" stop-opacity=".75"/>
      <stop offset=".89" stop-color="rgba(150, 67, 252, .93)" stop-opacity=".93"/>
      <stop offset="1" stop-color="#9842fd"/>
    </linearGradient>
  </defs>
  <g>
    <path class="cls-4" d="M476.98,90.97c-.85,0-1.27-.42-1.27-1.27v-.79c0-.83.42-1.24,1.27-1.24h.76c.81,0,1.21.41,1.21,1.24v.79c0,.85-.4,1.27-1.21,1.27h-.76Z"/>
    <path class="cls-4" d="M491.29,90.97c-2.43,0-4.22-.58-5.38-1.74s-1.74-2.96-1.74-5.38v-7.32c0-2.45.58-4.25,1.73-5.42s2.94-1.73,5.36-1.71h3.85c1.99,0,3.52.41,4.56,1.23,1.05.82,1.66,2.12,1.83,3.89.06.45-.02.78-.25,1.02s-.57.35-1.02.35c-.81,0-1.27-.45-1.4-1.34-.11-.98-.44-1.63-1.01-1.97-.57-.34-1.47-.51-2.71-.51h-3.85c-1.12,0-2.01.12-2.65.38-.64.27-1.1.72-1.37,1.38s-.41,1.55-.41,2.7v7.32c0,1.13.13,2.03.41,2.67s.73,1.11,1.38,1.38c.65.27,1.54.41,2.67.41h3.82c1.24,0,2.14-.17,2.71-.52.57-.34.9-1,1.01-1.96.13-.89.59-1.34,1.4-1.34.45,0,.79.12,1.02.35.23.23.32.57.25,1.02-.17,1.78-.78,3.08-1.83,3.9-1.05.82-2.57,1.22-4.56,1.22h-3.82Z"/>
    <path class="cls-4" d="M513.43,90.97c-2.43,0-4.22-.58-5.38-1.74s-1.74-2.96-1.74-5.38v-7.35c0-2.45.58-4.25,1.75-5.4,1.17-1.15,2.96-1.71,5.38-1.69h3.82c2.44,0,4.24.58,5.39,1.73s1.73,2.95,1.73,5.39v7.32c0,2.43-.58,4.22-1.73,5.38-1.16,1.16-2.95,1.74-5.39,1.74h-3.82ZM513.43,88.3h3.82c1.13,0,2.03-.14,2.67-.41.65-.27,1.11-.73,1.38-1.38s.41-1.54.41-2.67v-7.32c0-1.12-.13-2.01-.41-2.66s-.73-1.11-1.38-1.38-1.54-.41-2.67-.41h-3.82c-1.12,0-2.01.12-2.66.38-.65.27-1.11.72-1.38,1.37-.28.65-.41,1.54-.41,2.67v7.35c0,1.13.13,2.03.41,2.67s.73,1.11,1.38,1.38c.65.27,1.54.41,2.67.41Z"/>
    <path class="cls-4" d="M531.56,90.97c-.89,0-1.34-.45-1.34-1.34v-18.9c0-.89.45-1.34,1.34-1.34.58,0,1.07.29,1.46.86l7.51,11.29-.57.1,7.57-11.39c.36-.57.9-.86,1.62-.86s1.08.45,1.08,1.34v18.9c0,.89-.45,1.34-1.34,1.34s-1.34-.45-1.34-1.34v-16.22l.83.29-6.68,9.83c-.39.57-.93.86-1.62.86-.48,0-.91-.29-1.3-.86l-6.68-9.83.8.22v15.71c0,.89-.45,1.34-1.34,1.34Z"/>
  </g>
  <g>
    <path class="cls-4" d="M124.22,65.02c0,2.13-.16,2.22-.48,3.6-.32,1.38-.74,2.49-1.27,3.31-.53.83-1.15,1.45-1.85,1.85-.7.4-1.41.71-2.14.92.72.26,1.43.61,2.14,1.05.7.45,1.32,1.08,1.85,1.91.53.83.97,1.9,1.31,3.22.34,1.32.51,2.95.51,4.91v4.75h-6.69v-4.75c0-1.78-.11-3.26-.32-4.43-.21-1.17-.54-2.1-.99-2.8-.45-.7-.99-1.2-1.63-1.5-.64-.3-1.4-.45-2.3-.45h-5.55l4.8-3.76h.87c.81,0,1.52-.15,2.14-.45.62-.3,1.14-.79,1.56-1.47.42-.68.74-1.58.96-2.71.21-1.13.32-.88.32-2.58s-.11-3.11-.32-4.24c-.21-1.13-.53-2.03-.96-2.71-.43-.68-.95-1.16-1.56-1.43-.62-.28-1.33-.41-2.14-.41h-8.41v33.69h-6.69v-37.51h16.44c3.74,0,6.41.94,8,2.8,1.59,1.87,2.39,4.93,2.39,9.18Z"/>
    <path class="cls-4" d="M137.21,80.32l4.8-3.7h1.71c1.15,0,2.07-.08,2.77-.25.7-.17,1.24-.44,1.63-.8.38-.36.65-.84.8-1.43.15-.59.22-1.34.22-2.23v-2.48c0-.93-.07-1.72-.22-2.36-.15-.64-.41-1.15-.8-1.53s-.92-.65-1.63-.8c-.7-.15-1.63-.22-2.77-.22h-2.68c-1.15,0-2.07.09-2.77.26-.7.17-1.24.5-1.63.99-.38.49-.65,1.18-.8,2.07-.15.89-.22,2.04-.22,3.44v8.7c0,1.4.07,2.55.22,3.44.15.89.41,1.58.8,2.07.38.49.92.82,1.63.99.7.17,1.63.25,2.77.25h19.22l-4.41,3.82h-17.1c-1.91,0-3.48-.19-4.72-.57-1.23-.38-2.22-1.01-2.96-1.88-.74-.87-1.25-1.99-1.53-3.35-.28-1.36-.41-3.04-.41-5.04v-8.19c0-1.95.14-3.62.41-5,.28-1.38.79-2.51,1.53-3.38.74-.87,1.73-1.5,2.96-1.88,1.23-.38,2.8-.57,4.72-.57h7.27c1.91,0,3.48.18,4.72.54,1.23.36,2.22.89,2.96,1.59.74.7,1.25,1.57,1.53,2.61.28,1.04.41,2.24.41,3.6v2.93c0,1.36-.14,2.56-.41,3.6-.28,1.04-.79,1.91-1.53,2.61-.74.7-1.73,1.23-2.96,1.59-1.23.36-2.8.54-4.72.54h-8.81Z"/>
    <path class="cls-4" d="M166.99,64.51v26.04h-6.5v-38.79h6.5v8.93h10.96c1.91,0,3.48.19,4.72.57,1.23.38,2.22,1.01,2.96,1.88.74.87,1.25,2,1.53,3.38.28,1.38.41,3.05.41,5v19.02h-6.5v-19.28c0-1.4-.07-2.55-.22-3.44-.15-.89-.41-1.58-.8-2.07-.38-.49-.92-.82-1.63-.99-.7-.17-1.63-.26-2.77-.26h-8.67Z"/>
    <path class="cls-4" d="M210.06,71.24l-3.84,3.7h-2.33c-1.15,0-2.07.09-2.77.25-.7.17-1.24.44-1.63.8-.38.36-.65.84-.8,1.43-.15.6-.22,1.34-.22,2.23v2.16c0,.98.07,1.77.22,2.39.15.62.41,1.12.8,1.5.38.38.92.65,1.63.8.7.15,1.63.22,2.77.22h7.2v-15.46c0-1.4-.07-2.55-.22-3.44-.15-.89-.41-1.58-.8-2.07-.38-.49-.92-.82-1.63-.99-.7-.17-1.63-.26-2.77-.26h-9.18l3.84-3.82h7.63c1.91,0,3.48.19,4.72.57,1.23.38,2.22,1.01,2.96,1.88.74.87,1.25,2,1.53,3.38.28,1.38.41,3.05.41,5v19.02h-16c-1.91,0-3.48-.18-4.72-.54-1.23-.36-2.22-.89-2.96-1.59-.74-.7-1.25-1.57-1.53-2.61-.28-1.04-.41-2.24-.41-3.6v-2.61c0-1.36.14-2.56.41-3.6.28-1.04.79-1.91,1.53-2.61.74-.7,1.73-1.23,2.96-1.59,1.23-.36,2.8-.54,4.72-.54h8.46Z"/>
    <path class="cls-4" d="M230.29,64.35l4.41-3.82h6.22c1.91,0,3.48.19,4.72.57,1.23.38,2.22,1.01,2.96,1.88.74.87,1.25,2,1.53,3.38.28,1.38.41,3.05.41,5v9.45c0,2-.14,2.57-.41,3.93-.28,1.36-.79,2.48-1.53,3.35-.74.87-1.73,1.5-2.96,1.88-1.23.38-2.8.57-4.72.57h-17.21v-38.79h6.5v34.96h8.41c1.15,0,2.07-.08,2.77-.25.7-.17,1.24-.5,1.63-.99.38-.49.65-1.18.8-2.07.15-.89.22-.94.22-2.34v-9.96c0-1.4-.07-2.55-.22-3.44-.15-.89-.41-1.58-.8-2.07-.38-.49-.92-.82-1.63-.99-.7-.17-1.63-.26-2.77-.26h-8.34Z"/>
  </g>
  <g>
    <path class="cls-4" d="M283.16,64.76c-.6-.7-1.42-1.22-2.42-1.53-1.07-.33-2.47-.5-4.16-.5h-15.48v27.8h4.64v-25.64h8.72c1.11,0,2.03.09,2.73.26.8.19,1.43.58,1.89,1.16.42.54.72,1.29.87,2.23.14.86.22,1.97.22,3.3v18.69h4.64v-18.46c0-1.75-.12-3.27-.37-4.5-.23-1.16-.66-2.1-1.26-2.82Z"/>
    <path class="cls-4" d="M310.52,64.76c-.6-.7-1.42-1.22-2.42-1.53-1.07-.33-2.47-.5-4.16-.5h-9.93v2.16h7.81c1.11,0,2.03.09,2.73.26.8.19,1.43.58,1.88,1.16.43.55.72,1.28.88,2.23.14.86.22,1.97.22,3.3v16.53h-7.36c-1.12,0-2.01-.07-2.71-.22-.78-.17-1.4-.48-1.85-.93-.44-.44-.75-1.02-.92-1.71-.15-.64-.22-1.94-.22-2.88v-1.73c0-.89.07-1.62.23-2.23.17-.68.48-1.24.93-1.66.44-.42,1.05-.72,1.82-.91.7-.17,1.62-.26,2.73-.26h1.85v-2.04h-3.97c-1.69,0-3.1.16-4.17.47-1.03.3-1.86.75-2.46,1.32-.59.56-1,1.26-1.22,2.1-.24.9-.36,1.96-.36,3.16v.62c0,1.36.14,4.36.36,5.2.22.83.63,1.54,1.22,2.1.6.57,1.43,1.01,2.46,1.32,1.07.31,2.48.47,4.17.47h14.12v-18.46c0-1.75-.12-3.27-.37-4.5-.23-1.16-.66-2.1-1.26-2.82Z"/>
    <polygon class="cls-4" points="327.74 90.36 320.26 62.73 315.17 62.73 323.79 90.53 331.32 90.53 340.29 62.73 335.73 62.73 327.74 90.36"/>
    <rect class="cls-4" x="344.54" y="52.88" width="4.64" height="4.29"/>
    <rect class="cls-4" x="344.54" y="62.73" width="4.64" height="27.8"/>
    <path class="cls-4" d="M359.15,63.23c-1.01.31-1.82.83-2.42,1.53-.61.71-1.03,1.66-1.27,2.82-.25,1.23-.37,2.74-.37,4.5v10.65c0,1.37.07,1.68.22,2.3.04.19.09.41.15.69.23,1.14.66,2.08,1.27,2.79.6.7,1.41,1.22,2.42,1.53,1.07.33,2.47.5,4.16.5h5.98v-2.16h-3.85c-1.11,0-2.03-.09-2.73-.26-.8-.19-1.44-.58-1.89-1.16-.42-.54-.72-1.29-.87-2.23-.14-.85-.22-1.96-.22-3.3v-9.59c0-1.34.07-2.45.22-3.3.16-.94.45-1.69.87-2.23.45-.58,1.09-.97,1.89-1.16.7-.17,1.62-.26,2.73-.26h8.48v29.51c0,1.33-.07,2.44-.22,3.3-.16.93-.45,1.69-.87,2.25-.45.6-1.08,1.01-1.88,1.23-.7.19-1.63.29-2.75.29h-5.03v2.04h7.16c1.69,0,3.09-.17,4.16-.5,1.01-.31,1.82-.83,2.42-1.53.61-.71,1.03-1.65,1.27-2.79.25-1.21.37-2.73.37-4.52v-31.44h-15.25c-1.69,0-3.09.17-4.16.5Z"/>
    <path class="cls-4" d="M404.52,64.76c-.6-.7-1.42-1.22-2.42-1.53-1.07-.33-2.47-.5-4.16-.5h-9.93v2.16h7.81c1.11,0,2.03.09,2.73.26.8.19,1.43.58,1.89,1.16.43.55.72,1.28.87,2.23.14.87.22,1.98.22,3.3v16.53h-7.36c-1.12,0-2.01-.07-2.71-.22-.78-.17-1.4-.48-1.85-.93-.44-.44-.75-1.02-.92-1.71-.15-.62-.23-1.4-.23-2.37v-2.25c0-.89.07-1.62.23-2.23.17-.68.48-1.23.93-1.66.44-.42,1.05-.72,1.82-.91.7-.17,1.62-.26,2.73-.26h1.85v-2.04h-3.97c-1.69,0-3.1.16-4.17.47-1.03.3-1.86.74-2.46,1.32-.59.56-1,1.26-1.22,2.1-.24.9-.36,1.96-.36,3.16v2.66c0,1.2.12,2.26.36,3.16.22.83.63,1.54,1.22,2.1.61.57,1.43,1.01,2.46,1.32,1.07.31,2.48.47,4.17.47h14.12v-18.46c0-1.75-.12-3.27-.37-4.5-.23-1.15-.66-2.1-1.27-2.82Z"/>
    <path class="cls-4" d="M416.59,54.12h-4.64v29.2c0,1.08.12,2.08.36,2.98.23.87.6,1.62,1.11,2.25.49.61,1.17,1.1,2.02,1.45.88.36,1.99.54,3.31.54h4.39v-2.16h-1.97c-1.77,0-2.96-.4-3.63-1.23-.64-.78-.95-2.17-.95-4.24v-18.01h8.2v-2.16h-8.2v-8.62Z"/>
    <path class="cls-4" d="M451.72,67.58c-.23-1.15-.66-2.1-1.27-2.82-.6-.7-1.41-1.22-2.42-1.53-1.07-.33-2.47-.5-4.16-.5h-7.91c-1.68,0-3.08.17-4.16.5-1.01.31-1.82.83-2.42,1.53-.61.72-1.04,1.67-1.26,2.82-.25,1.23-.37,2.74-.37,4.5v10.65c0,1.37.07,1.68.22,2.3.04.19.1.41.15.69.23,1.14.66,2.08,1.26,2.79.6.7,1.42,1.22,2.42,1.53,1.07.33,2.48.5,4.16.5h7.91c1.69,0,3.09-.17,4.16-.5,1.01-.32,1.83-.83,2.43-1.53.61-.71,1.03-1.65,1.26-2.79.06-.28.11-.51.15-.7.14-.62.22-.93.22-2.3v-10.65c0-1.75-.13-3.26-.37-4.5h0ZM447.45,81.42c0,1.33-.07,2.44-.21,3.3-.16.94-.45,1.69-.88,2.23-.44.57-1.08.96-1.88,1.16-.7.17-1.61.25-2.73.25h-3.66c-1.11,0-2.03-.09-2.73-.25-.8-.2-1.44-.59-1.89-1.16-.42-.54-.71-1.29-.87-2.23-.15-.85-.22-1.97-.22-3.3v-9.59c0-1.34.07-2.45.22-3.3.15-.93.44-1.68.87-2.23.46-.58,1.09-.97,1.89-1.16.48-.12,6.16-.2,6.87-.23h0c.9,0,1.67.09,2.25.23.8.19,1.43.58,1.88,1.16.43.54.72,1.29.88,2.23.14.87.21,1.98.21,3.3v9.59Z"/>
    <path class="cls-4" d="M465.87,62.73c-1.69,0-3.09.17-4.16.5-1.01.31-1.82.83-2.42,1.53-.61.71-1.03,1.66-1.27,2.81-.25,1.23-.37,2.74-.37,4.5v18.46h4.64v-18.69c0-1.33.07-2.44.22-3.3.16-.94.45-1.69.87-2.23.45-.58,1.08-.96,1.88-1.16.7-.17,1.62-.26,2.73-.26h3.32v-2.16h-5.45Z"/>
  </g>
  <g>
    <path class="cls-1" d="M42.59,45.16c-5.97-13.6-15.05-24.02-23.71-27.2-3.77-1.38-7.37-1.33-10.41.16C-1.7,23.09-2.76,42.7,6.04,62.77c5.97,13.6,15.05,24.02,23.71,27.2,1.81.66,3.59,1,5.28,1,1.82,0,3.55-.39,5.13-1.16,10.17-4.97,11.23-24.58,2.43-44.65Z"/>
    <path class="cls-2" d="M45.26,22.64c-12.62-6.52-25.98-8.56-34.88-5.32-4.43,1.61-7.61,4.47-9.2,8.25-4.87,11.63,6.63,28.65,26.17,38.75,8.65,4.47,17.66,6.84,25.33,6.84,3.52,0,6.75-.5,9.55-1.51,4.43-1.61,7.61-4.47,9.2-8.25,4.87-11.63-6.63-28.65-26.17-38.75Z"/>
    <path class="cls-3" d="M75.37,13.05c-2.04-6.18-7.99-10.53-16.77-12.25C50.37-.82,40.49.05,30.77,3.25,9.85,10.15-3.34,25.26.74,37.65c2.04,6.18,7.99,10.53,16.77,12.25,2.7.53,5.57.79,8.56.79,6.13,0,12.74-1.1,19.27-3.25,20.92-6.9,34.11-22.01,30.03-34.4Z"/>
  </g>
</svg>