<?xml version="1.0" encoding="utf-8"?>
<!-- Generator: Adobe Illustrator 28.3.0, SVG Export Plug-In . SVG Version: 6.00 Build 0)  -->
<svg version="1.1" id="Layer_1" xmlns="http://www.w3.org/2000/svg" xmlns:xlink="http://www.w3.org/1999/xlink" x="0px" y="0px"
	 viewBox="0 0 1088.7 209.1" style="enable-background:new 0 0 1088.7 209.1;" xml:space="preserve">
<style type="text/css">
	.st0{fill:#494872;}
	.st1{fill:url(#SVGID_1_);}
	.st2{fill:url(#SVGID_00000137090746433708070690000004632965069694103198_);}
	.st3{fill:url(#SVGID_00000134945422723273237530000009848571148917947061_);}
</style>
<g>
	<g>
		<path class="st0" d="M941,182.5c-1.7,0-2.5-0.8-2.5-2.5v-1.6c0-1.6,0.8-2.4,2.5-2.4h1.5c1.6,0,2.4,0.8,2.4,2.4v1.6
			c0,1.7-0.8,2.5-2.4,2.5H941z"/>
		<path class="st0" d="M969.1,182.5c-4.8,0-8.3-1.1-10.6-3.4c-2.3-2.3-3.4-5.8-3.4-10.6v-14.4c0-4.8,1.1-8.3,3.4-10.6
			c2.3-2.3,5.8-3.4,10.5-3.4h7.6c3.9,0,6.9,0.8,9,2.4c2.1,1.6,3.3,4.2,3.6,7.6c0.1,0.9,0,1.5-0.5,2c-0.5,0.5-1.1,0.7-2,0.7
			c-1.6,0-2.5-0.9-2.7-2.6c-0.2-1.9-0.9-3.2-2-3.9c-1.1-0.7-2.9-1-5.3-1H969c-2.2,0-3.9,0.2-5.2,0.7c-1.3,0.5-2.2,1.4-2.7,2.7
			c-0.5,1.3-0.8,3-0.8,5.3v14.4c0,2.2,0.3,4,0.8,5.2s1.4,2.2,2.7,2.7c1.3,0.5,3,0.8,5.2,0.8h7.5c2.4,0,4.2-0.3,5.3-1
			c1.1-0.7,1.8-2,2-3.9c0.3-1.7,1.2-2.6,2.7-2.6c0.9,0,1.5,0.2,2,0.7c0.5,0.5,0.6,1.1,0.5,2c-0.3,3.5-1.5,6-3.6,7.6
			c-2.1,1.6-5,2.4-9,2.4H969.1z"/>
		<path class="st0" d="M1012.5,182.5c-4.8,0-8.3-1.1-10.6-3.4c-2.3-2.3-3.4-5.8-3.4-10.6v-14.4c0-4.8,1.1-8.3,3.4-10.6
			c2.3-2.3,5.8-3.4,10.5-3.3h7.5c4.8,0,8.3,1.1,10.6,3.4c2.3,2.3,3.4,5.8,3.4,10.6v14.4c0,4.8-1.1,8.3-3.4,10.6
			c-2.3,2.3-5.8,3.4-10.6,3.4H1012.5z M1012.5,177.3h7.5c2.2,0,4-0.3,5.2-0.8c1.3-0.5,2.2-1.4,2.7-2.7c0.5-1.3,0.8-3,0.8-5.2v-14.4
			c0-2.2-0.3-3.9-0.8-5.2c-0.5-1.3-1.4-2.2-2.7-2.7s-3-0.8-5.2-0.8h-7.5c-2.2,0-3.9,0.2-5.2,0.7c-1.3,0.5-2.2,1.4-2.7,2.7
			c-0.5,1.3-0.8,3-0.8,5.2v14.4c0,2.2,0.3,4,0.8,5.2s1.4,2.2,2.7,2.7C1008.6,177,1010.3,177.3,1012.5,177.3z"/>
		<path class="st0" d="M1048.1,182.5c-1.7,0-2.6-0.9-2.6-2.6v-37.1c0-1.7,0.9-2.6,2.6-2.6c1.1,0,2.1,0.6,2.9,1.7l14.7,22.2l-1.1,0.2
			l14.9-22.3c0.7-1.1,1.8-1.7,3.2-1.7c1.4,0,2.1,0.9,2.1,2.6v37.1c0,1.7-0.9,2.6-2.6,2.6c-1.7,0-2.6-0.9-2.6-2.6V148l1.6,0.6
			l-13.1,19.3c-0.8,1.1-1.8,1.7-3.2,1.7c-0.9,0-1.8-0.6-2.6-1.7l-13.1-19.3l1.6,0.4v30.8C1050.7,181.6,1049.9,182.5,1048.1,182.5z"
			/>
	</g>
	<g>
		<path class="st0" d="M248.8,131.6c0,4.2-0.3,4.4-0.9,7.1c-0.6,2.7-1.5,4.9-2.5,6.5c-1,1.6-2.3,2.8-3.6,3.6
			c-1.4,0.8-2.8,1.4-4.2,1.8c1.4,0.5,2.8,1.2,4.2,2.1c1.4,0.9,2.6,2.1,3.6,3.8c1,1.6,1.9,3.7,2.6,6.3c0.7,2.6,1,5.8,1,9.6v9.3h-13.1
			v-9.3c0-3.5-0.2-6.4-0.6-8.7c-0.4-2.3-1.1-4.1-1.9-5.5c-0.9-1.4-1.9-2.4-3.2-2.9c-1.3-0.6-2.8-0.9-4.5-0.9h-10.9l9.4-7.4h1.7
			c1.6,0,3-0.3,4.2-0.9c1.2-0.6,2.2-1.5,3.1-2.9c0.8-1.3,1.5-3.1,1.9-5.3c0.4-2.2,0.6-1.7,0.6-5.1c0-3.3-0.2-6.1-0.6-8.3
			c-0.4-2.2-1-4-1.9-5.3c-0.8-1.3-1.9-2.3-3.1-2.8c-1.2-0.5-2.6-0.8-4.2-0.8h-16.5v66.1h-13.1v-73.6h32.3c7.3,0,12.6,1.8,15.7,5.5
			C247.2,117.2,248.8,123.2,248.8,131.6z"/>
		<path class="st0" d="M274.3,161.6l9.4-7.3h3.4c2.3,0,4.1-0.2,5.4-0.5c1.4-0.3,2.4-0.9,3.2-1.6c0.8-0.7,1.3-1.6,1.6-2.8
			c0.3-1.2,0.4-2.6,0.4-4.4v-4.9c0-1.8-0.1-3.4-0.4-4.6c-0.3-1.3-0.8-2.3-1.6-3s-1.8-1.3-3.2-1.6c-1.4-0.3-3.2-0.4-5.4-0.4h-5.3
			c-2.3,0-4.1,0.2-5.4,0.5c-1.4,0.3-2.4,1-3.2,1.9c-0.8,1-1.3,2.3-1.6,4.1c-0.3,1.8-0.4,4-0.4,6.8v17.1c0,2.8,0.1,5,0.4,6.8
			c0.3,1.8,0.8,3.1,1.6,4.1c0.8,1,1.8,1.6,3.2,1.9c1.4,0.3,3.2,0.5,5.4,0.5h37.7l-8.7,7.5h-33.6c-3.8,0-6.8-0.4-9.3-1.1
			c-2.4-0.8-4.4-2-5.8-3.7c-1.5-1.7-2.5-3.9-3-6.6c-0.5-2.7-0.8-6-0.8-9.9v-16.1c0-3.8,0.3-7.1,0.8-9.8c0.5-2.7,1.5-4.9,3-6.6
			c1.5-1.7,3.4-2.9,5.8-3.7c2.4-0.8,5.5-1.1,9.3-1.1h14.3c3.8,0,6.8,0.4,9.3,1.1c2.4,0.7,4.4,1.8,5.8,3.1c1.5,1.4,2.5,3.1,3,5.1
			c0.5,2,0.8,4.4,0.8,7.1v5.7c0,2.7-0.3,5-0.8,7.1c-0.5,2-1.5,3.8-3,5.1c-1.5,1.4-3.4,2.4-5.8,3.1c-2.4,0.7-5.5,1.1-9.3,1.1H274.3z"
			/>
		<path class="st0" d="M332.7,130.6v51.1h-12.8v-76.1h12.8v17.5h21.5c3.8,0,6.8,0.4,9.3,1.1c2.4,0.8,4.4,2,5.8,3.7
			c1.5,1.7,2.5,3.9,3,6.6c0.5,2.7,0.8,6,0.8,9.8v37.3h-12.8v-37.8c0-2.8-0.1-5-0.4-6.8c-0.3-1.8-0.8-3.1-1.6-4.1
			c-0.8-1-1.8-1.6-3.2-1.9c-1.4-0.3-3.2-0.5-5.4-0.5H332.7z"/>
		<path class="st0" d="M417.2,143.8l-7.5,7.3h-4.6c-2.3,0-4.1,0.2-5.4,0.5c-1.4,0.3-2.4,0.9-3.2,1.6c-0.8,0.7-1.3,1.6-1.6,2.8
			c-0.3,1.2-0.4,2.6-0.4,4.4v4.2c0,1.9,0.1,3.5,0.4,4.7c0.3,1.2,0.8,2.2,1.6,2.9c0.8,0.8,1.8,1.3,3.2,1.6c1.4,0.3,3.2,0.4,5.4,0.4
			h14.1v-30.3c0-2.8-0.1-5-0.4-6.8c-0.3-1.8-0.8-3.1-1.6-4.1c-0.8-1-1.8-1.6-3.2-1.9c-1.4-0.3-3.2-0.5-5.4-0.5h-18l7.5-7.5h15
			c3.8,0,6.8,0.4,9.3,1.1c2.4,0.8,4.4,2,5.8,3.7c1.5,1.7,2.5,3.9,3,6.6c0.5,2.7,0.8,6,0.8,9.8v37.3h-31.4c-3.8,0-6.8-0.4-9.3-1.1
			c-2.4-0.7-4.4-1.8-5.8-3.1c-1.5-1.4-2.5-3.1-3-5.1c-0.5-2-0.8-4.4-0.8-7.1v-5.1c0-2.7,0.3-5,0.8-7.1c0.5-2,1.5-3.8,3-5.1
			c1.5-1.4,3.4-2.4,5.8-3.1c2.4-0.7,5.5-1.1,9.3-1.1H417.2z"/>
		<path class="st0" d="M456.9,130.3l8.7-7.5h12.2c3.8,0,6.8,0.4,9.3,1.1c2.4,0.8,4.4,2,5.8,3.7c1.5,1.7,2.5,3.9,3,6.6
			c0.5,2.7,0.8,6,0.8,9.8v18.6c0,3.9-0.3,5-0.8,7.7c-0.5,2.7-1.5,4.9-3,6.6c-1.5,1.7-3.4,2.9-5.8,3.7c-2.4,0.8-5.5,1.1-9.3,1.1H444
			v-76.1h12.8v68.6h16.5c2.3,0,4.1-0.2,5.4-0.5c1.4-0.3,2.4-1,3.2-1.9c0.8-1,1.3-2.3,1.6-4.1c0.3-1.8,0.4-1.8,0.4-4.6v-19.6
			c0-2.8-0.1-5-0.4-6.8c-0.3-1.8-0.8-3.1-1.6-4.1c-0.8-1-1.8-1.6-3.2-1.9c-1.4-0.3-3.2-0.5-5.4-0.5H456.9z"/>
	</g>
	<g>
		<linearGradient id="SVGID_1_" gradientUnits="userSpaceOnUse" x1="10.8031" y1="117.2829" x2="94.6174" y2="102.5042">
			<stop  offset="2.877006e-07" style="stop-color:#60FFFE"/>
			<stop  offset="0.17" style="stop-color:#44FBFE"/>
			<stop  offset="0.4356" style="stop-color:#1FF6FF"/>
			<stop  offset="0.6502" style="stop-color:#08F2FF"/>
			<stop  offset="0.7855" style="stop-color:#00F1FF"/>
		</linearGradient>
		<path class="st1" d="M88.6,92.6C76.9,65.9,59,45.5,42,39.2c-7.4-2.7-14.5-2.6-20.4,0.3c-20,9.7-22,48.2-4.8,87.6
			c11.7,26.7,29.5,47.1,46.5,53.4c3.6,1.3,7,2,10.4,2c3.6,0,7-0.8,10.1-2.3C103.8,170.5,105.8,132,88.6,92.6z"/>
		
			<linearGradient id="SVGID_00000034077716962193794440000009497364571464467123_" gradientUnits="userSpaceOnUse" x1="76.2393" y1="35" x2="76.2393" y2="143.6221">
			<stop  offset="2.770450e-07" style="stop-color:#00FFFF;stop-opacity:0.2"/>
			<stop  offset="0.1317" style="stop-color:#26EAFE;stop-opacity:0.3151"/>
			<stop  offset="0.2695" style="stop-color:#45D8FE;stop-opacity:0.4356"/>
			<stop  offset="0.4133" style="stop-color:#5ECBFD;stop-opacity:0.5613"/>
			<stop  offset="0.5636" style="stop-color:#6FC1FD;stop-opacity:0.6927"/>
			<stop  offset="0.7246" style="stop-color:#7ABBFD;stop-opacity:0.8335"/>
			<stop  offset="0.9151" style="stop-color:#7DB9FD"/>
		</linearGradient>
		<path style="fill:url(#SVGID_00000034077716962193794440000009497364571464467123_);" d="M93.8,48.4C69.1,35.6,42.8,31.6,25.4,38
			c-8.7,3.2-14.9,8.8-18.1,16.2c-9.6,22.8,13,56.2,51.4,76c17,8.8,34.7,13.4,49.7,13.4c6.9,0,13.3-1,18.7-3
			c8.7-3.2,14.9-8.8,18.1-16.2C154.7,101.6,132.2,68.2,93.8,48.4z"/>
		
			<linearGradient id="SVGID_00000006701411760180648410000008240497368422027663_" gradientUnits="userSpaceOnUse" x1="47.0409" y1="110.247" x2="112.2995" y2="-2.7842">
			<stop  offset="0" style="stop-color:#8A59FC;stop-opacity:5.000000e-02"/>
			<stop  offset="0.2234" style="stop-color:#8E53FC;stop-opacity:0.2622"/>
			<stop  offset="1" style="stop-color:#9842FD"/>
		</linearGradient>
		<path style="fill:url(#SVGID_00000006701411760180648410000008240497368422027663_);" d="M152.9,29.6c-4-12.1-15.7-20.7-32.9-24
			c-16.2-3.2-35.5-1.5-54.6,4.8C24.3,23.9-1.6,53.6,6.4,77.9c4,12.1,15.7,20.7,32.9,24c5.3,1,10.9,1.6,16.8,1.6
			c12,0,25-2.2,37.8-6.4C135,83.5,160.9,53.9,152.9,29.6z"/>
	</g>
	<g>
		<path class="st0" d="M614.3,130.1c-1.2-1.4-2.8-2.4-4.8-3c-2.1-0.7-4.8-1-8.2-1h-19.5v4.2h15.3c2.2,0,4,0.2,5.4,0.5
			c1.6,0.4,2.8,1.1,3.7,2.3c0.8,1.1,1.4,2.5,1.7,4.4c0.3,1.7,0.4,3.9,0.4,6.5v32.4h-14.4c-2.2,0-3.9-0.1-5.3-0.4
			c-1.5-0.3-2.7-0.9-3.6-1.8c-0.9-0.9-1.5-2-1.8-3.4c-0.3-1.3-0.4-3.8-0.4-5.7v-3.4c0-1.8,0.1-3.2,0.4-4.4c0.3-1.3,0.9-2.4,1.8-3.3
			c0.9-0.8,2.1-1.4,3.6-1.8c1.4-0.3,3.2-0.5,5.4-0.5h3.6v-4h-7.8c-3.3,0-6.1,0.3-8.2,0.9c-2,0.6-3.7,1.5-4.8,2.6
			c-1.2,1.1-2,2.5-2.4,4.1c-0.5,1.8-0.7,3.8-0.7,6.2v1.2c0,2.7,0.3,8.6,0.7,10.2c0.4,1.6,1.2,3,2.4,4.1c1.2,1.1,2.8,2,4.8,2.6
			c2.1,0.6,4.9,0.9,8.2,0.9h27.7v-36.2c0-3.4-0.2-6.4-0.7-8.8C616.3,133.4,615.5,131.5,614.3,130.1z"/>
		<polygon class="st0" points="648.1,180.4 633.4,126.1 623.4,126.1 640.3,180.7 655.1,180.7 672.7,126.1 663.7,126.1 		"/>
		<rect x="681.1" y="106.8" class="st0" width="9.1" height="8.4"/>
		<rect x="681.1" y="126.1" class="st0" width="9.1" height="54.6"/>
		<path class="st0" d="M709.7,127.1c-2,0.6-3.6,1.6-4.8,3c-1.2,1.4-2,3.3-2.5,5.5c-0.5,2.4-0.7,5.4-0.7,8.8v20.9
			c0,2.7,0.1,3.3,0.4,4.5c0.1,0.4,0.2,0.8,0.3,1.4c0.5,2.2,1.3,4.1,2.5,5.5c1.2,1.4,2.8,2.4,4.8,3c2.1,0.7,4.8,1,8.2,1h11.7v-4.2
			h-7.6c-2.2,0-4-0.2-5.4-0.5c-1.6-0.4-2.8-1.1-3.7-2.3c-0.8-1.1-1.4-2.5-1.7-4.4c-0.3-1.7-0.4-3.9-0.4-6.5V144
			c0-2.6,0.1-4.8,0.4-6.5c0.3-1.8,0.9-3.3,1.7-4.4c0.9-1.1,2.1-1.9,3.7-2.3c1.4-0.3,3.2-0.5,5.4-0.5h16.6v57.9
			c0,2.6-0.1,4.8-0.4,6.5c-0.3,1.8-0.9,3.3-1.7,4.4c-0.9,1.2-2.1,2-3.7,2.4c-1.4,0.4-3.2,0.6-5.4,0.6h-9.9v4h14.1
			c3.3,0,6.1-0.3,8.2-1c2-0.6,3.6-1.6,4.8-3c1.2-1.4,2-3.2,2.5-5.5c0.5-2.4,0.7-5.4,0.7-8.9v-61.7h-29.9
			C714.6,126.1,711.8,126.5,709.7,127.1z"/>
		<path class="st0" d="M798.8,130.1c-1.2-1.4-2.8-2.4-4.8-3c-2.1-0.7-4.9-1-8.2-1h-19.5v4.2h15.3c2.2,0,4,0.2,5.4,0.5
			c1.6,0.4,2.8,1.1,3.7,2.3c0.8,1.1,1.4,2.5,1.7,4.4c0.3,1.7,0.4,3.9,0.4,6.5v32.4h-14.4c-2.2,0-3.9-0.1-5.3-0.4
			c-1.5-0.3-2.8-0.9-3.6-1.8c-0.9-0.9-1.5-2-1.8-3.4c-0.3-1.2-0.4-2.7-0.4-4.7v-4.4c0-1.7,0.1-3.2,0.4-4.4c0.3-1.3,0.9-2.4,1.8-3.3
			c0.9-0.8,2.1-1.4,3.6-1.8c1.4-0.3,3.2-0.5,5.4-0.5h3.6v-4h-7.8c-3.3,0-6.1,0.3-8.2,0.9c-2,0.6-3.7,1.5-4.8,2.6
			c-1.2,1.1-2,2.5-2.4,4.1c-0.5,1.8-0.7,3.9-0.7,6.2v5.2c0,2.3,0.2,4.4,0.7,6.2c0.4,1.6,1.2,3,2.4,4.1c1.2,1.1,2.8,2,4.8,2.6
			c2.1,0.6,4.9,0.9,8.2,0.9H802v-36.2c0-3.4-0.2-6.4-0.7-8.8C800.8,133.4,800,131.5,798.8,130.1z"/>
		<path class="st0" d="M822.5,109.2h-9.1v57.3c0,2.1,0.2,4.1,0.7,5.8c0.5,1.7,1.2,3.2,2.2,4.4c1,1.2,2.3,2.2,4,2.8
			c1.7,0.7,3.9,1.1,6.5,1.1h8.6v-4.2h-3.9c-3.5,0-5.8-0.8-7.1-2.4c-1.3-1.5-1.9-4.3-1.9-8.3v-35.3h16.1v-4.2h-16.1V109.2z"/>
		<path class="st0" d="M891.4,135.6c-0.5-2.3-1.3-4.1-2.5-5.5c-1.2-1.4-2.8-2.4-4.8-3c-2.1-0.6-4.9-1-8.2-1h-3.2h-3h-9.3
			c-3.3,0-6.1,0.3-8.2,1c-2,0.6-3.6,1.6-4.8,3c-1.2,1.4-2,3.3-2.5,5.5c-0.5,2.4-0.7,5.4-0.7,8.8v20.9c0,2.7,0.1,3.3,0.4,4.5
			c0.1,0.4,0.2,0.8,0.3,1.4c0.5,2.2,1.3,4.1,2.5,5.5c1.2,1.4,2.8,2.4,4.8,3c2.1,0.7,4.9,1,8.2,1H876c3.3,0,6.1-0.3,8.2-1
			c2-0.6,3.6-1.6,4.8-3c1.2-1.4,2-3.2,2.5-5.5c0.1-0.6,0.2-1,0.3-1.4c0.3-1.2,0.4-1.8,0.4-4.5v-20.9
			C892.2,141,891.9,138.1,891.4,135.6L891.4,135.6z M883.1,162.8c0,2.6-0.1,4.8-0.4,6.5c-0.3,1.8-0.9,3.3-1.7,4.4
			c-0.9,1.1-2.1,1.9-3.7,2.3c-1.4,0.3-3.2,0.5-5.4,0.5h-7.2c-2.2,0-4-0.2-5.4-0.5c-1.6-0.4-2.8-1.2-3.7-2.3
			c-0.8-1.1-1.4-2.5-1.7-4.4c-0.3-1.7-0.4-3.9-0.4-6.5V144c0-2.6,0.1-4.8,0.4-6.5c0.3-1.8,0.9-3.3,1.7-4.4c0.9-1.1,2.1-1.9,3.7-2.3
			c0.9-0.2,12.1-0.4,13.5-0.5v0c1.8,0,3.3,0.2,4.4,0.5c1.6,0.4,2.8,1.1,3.7,2.3c0.8,1.1,1.4,2.5,1.7,4.4c0.3,1.7,0.4,3.9,0.4,6.5
			V162.8z"/>
		<path class="st0" d="M919.2,126.1c-3.3,0-6.1,0.3-8.2,1c-2,0.6-3.6,1.6-4.8,3c-1.2,1.4-2,3.3-2.5,5.5c-0.5,2.4-0.7,5.4-0.7,8.8
			v36.2h9.1V144c0-2.6,0.1-4.8,0.4-6.5c0.3-1.8,0.9-3.3,1.7-4.4c0.9-1.1,2.1-1.9,3.7-2.3c1.4-0.3,3.2-0.5,5.4-0.5h6.5v-4.2H919.2z"
			/>
		<polygon class="st0" points="555,163.3 530.6,111.7 517.2,111.7 517.2,180.6 525.1,180.6 525.1,121.9 553.9,180.6 563,180.6 
			563,111.7 555,111.7 		"/>
	</g>
</g>
</svg>
